# xmcd
#
# Track frame offsets: 
#        150
#        20740
#        39405
#        60985
#        80575
#        103620
#        127210
#        147687
#        166060
#        186760
#
# Disc length: 2772 seconds
#
# Revision: 2
# Processed by: cddbd v1.5.2PL0 Copyright (c) Steve Scherf et al.
# Submitted via: ExactAudioCopy v1.0b1
#
DISCID=890ad20a
DTITLE=Thanh Ha - To Chan Phong - KHCD 27 Khuc Nhac Buon
DYEAR=1900
DGENRE=Vietnamese
TTITLE0=01. Thanh Ha - Uoc Hen
TTITLE1=02. To Chan Phong - Khuc Nhac Buon
TTITLE2=03. Thanh Ha - Tinh Xanh
TTITLE3=04. To Chan Phong - Bien Tham
TTITLE4=05. Thanh Ha - Mua Thu Yeu Duong
TTITLE5=06. Thanh Ha and To Chan Phong - Anh Da Quen Mua Thu
TTITLE6=07. To Chan Phong - Tinh Buon Dem Mua
TTITLE7=08. Thanh Ha - Tan Vo
TTITLE8=09. To Chan Phong - Em Di
TTITLE9=10. To Chan Phong - Vet Dau Trong Linh Hon
EXTD=
EXTT0=
EXTT1=
EXTT2=
EXTT3=
EXTT4=
EXTT5=
EXTT6=
EXTT7=
EXTT8=
EXTT9=
PLAYORDER=
